<svg width="24" height="24" viewBox="0 0 24 24" fill="none" xmlns="http://www.w3.org/2000/svg">
<path d="M3.77148 19.1071L2.92148 18.7571C2.40482 18.5405 2.05898 18.1655 1.88398 17.6321C1.70898 17.0988 1.73815 16.5738 1.97148 16.0571L3.77148 12.1571V19.1071ZM7.77148 21.3071C7.22148 21.3071 6.75065 21.1113 6.35898 20.7196C5.96732 20.328 5.77148 19.8571 5.77148 19.3071V13.3071L8.42148 20.6571C8.47149 20.7738 8.52148 20.8863 8.57149 20.9946C8.62148 21.103 8.68815 21.2071 8.77148 21.3071H7.77148ZM13.1845 21.3266C12.5993 21.5466 12.0308 21.5206 11.479 21.2486C10.9273 20.9768 10.5415 20.5463 10.3215 19.9571L5.87148 7.75712C5.65148 7.17196 5.66915 6.60029 5.92448 6.04212C6.17965 5.48396 6.59982 5.10129 7.18498 4.89412L14.735 2.14412C15.3202 1.92812 15.8897 1.95512 16.4435 2.22512C16.9973 2.49496 17.3842 2.92446 17.604 3.51362L22.054 15.7196C22.27 16.3048 22.2484 16.8755 21.9892 17.4316C21.7299 17.9878 21.3077 18.3695 20.7225 18.5766L13.1845 21.3266ZM11.1062 9.40862C11.4136 9.40862 11.673 9.30421 11.8845 9.09537C12.0962 8.88654 12.202 8.62779 12.202 8.31912C12.202 8.01179 12.0962 7.75237 11.8845 7.54087C11.673 7.32921 11.4136 7.22337 11.1062 7.22337C10.7991 7.22337 10.5407 7.32921 10.331 7.54087C10.1213 7.75237 10.0165 8.01179 10.0165 8.31912C10.0165 8.62629 10.121 8.88471 10.33 9.09437C10.5388 9.30387 10.7976 9.40862 11.1062 9.40862Z" fill="#FCF3D7"/>
</svg>
