<svg width="47" height="43" viewBox="0 0 47 43" fill="none" xmlns="http://www.w3.org/2000/svg">
<g id="ic_school">
<path id="Polygon 4" d="M23.5001 3.08406L35.1296 15.5578H11.8706L23.5001 3.08406Z" fill="#E3E5E5"/>
<path id="Rectangle 74" d="M0 14.1718H47V40C47 41.6569 45.6569 43 44 43H3C1.34315 43 0 41.6569 0 40V14.1718Z" fill="#C6CACC"/>
<rect id="Rectangle 75" x="15" y="14" width="17" height="29" fill="#E3E5E5"/>
<path id="Rectangle 76" d="M0 14C0 12.3431 1.34315 11 3 11H15V17H0V14Z" fill="#FDD152"/>
<path id="Rectangle 86" d="M36.3711 12.3197L25.6448 1.59338C24.4732 0.421808 22.565 0.413008 21.3826 1.57373L19.4721 3.44931L32.3198 16.297L36.3711 12.3197Z" fill="#FDD152"/>
<path id="Rectangle 87" d="M10.6001 12.3197L21.3563 1.56355C22.5278 0.391977 24.436 0.383178 25.6184 1.5439L27.5289 3.41948L14.6514 16.297L10.6001 12.3197Z" fill="#FDD152"/>
<path id="Rectangle 77" d="M32 11H44C45.6569 11 47 12.3431 47 14V17H32V11Z" fill="#FDD152"/>
<ellipse id="Ellipse 21" cx="22.9404" cy="20.2701" rx="6.15476" ry="6.09827" fill="white"/>
<path id="Rectangle 80" d="M22.3809 16.9489C22.3809 16.6399 22.6314 16.3894 22.9404 16.3894C23.2494 16.3894 23.4999 16.6399 23.4999 16.9489V20.8245H22.3809V16.9489Z" fill="#3E4345"/>
<path id="Rectangle 81" d="M22.3809 20.8245V19.7157H26.3027C26.6088 19.7157 26.857 19.9639 26.857 20.2701C26.857 20.5763 26.6088 20.8245 26.3027 20.8245H22.3809Z" fill="#3E4345"/>
<path id="Rectangle 82" d="M19.0239 32.6947C19.0239 31.0378 20.3671 29.6947 22.0239 29.6947H24.9763C26.6332 29.6947 27.9763 31.0378 27.9763 32.6947V43H19.0239V32.6947Z" fill="#5E6366"/>
<rect id="Rectangle 84" y="16" width="15" height="2" fill="#C6CACC"/>
<rect id="Rectangle 85" x="32" y="16" width="15" height="2" fill="#C6CACC"/>
</g>
</svg>
