<svg width="24" height="24" viewBox="0 0 24 24" fill="none" xmlns="http://www.w3.org/2000/svg">
<path d="M23.185 8.57562C23.185 9.73762 22.9808 10.8434 22.5725 11.8931C22.1641 12.9428 21.608 13.8926 20.904 14.7426C20.7 14.9838 20.443 15.1117 20.1332 15.1264C19.8232 15.141 19.5515 15.0298 19.3182 14.7926C19.0975 14.5719 18.9935 14.3086 19.0062 14.0026C19.0189 13.6966 19.1189 13.4166 19.3062 13.1626C19.8022 12.5293 20.1897 11.8209 20.4687 11.0376C20.7477 10.2543 20.8872 9.43362 20.8872 8.57562C20.8872 7.72562 20.7517 6.91928 20.4807 6.15662C20.2097 5.39395 19.8262 4.69595 19.3302 4.06262C19.1302 3.80862 19.028 3.52862 19.0237 3.22262C19.0194 2.91662 19.1275 2.64695 19.348 2.41361C19.5686 2.18028 19.8351 2.06778 20.1475 2.07611C20.4598 2.08445 20.718 2.20928 20.922 2.45062C21.622 3.30062 22.1741 4.24645 22.5785 5.28812C22.9828 6.32978 23.185 7.42562 23.185 8.57562ZM18.5515 8.58762C18.5515 9.11695 18.47 9.62545 18.3072 10.1131C18.1445 10.6008 17.9152 11.0509 17.6192 11.4636C17.4359 11.7176 17.189 11.8468 16.8787 11.8511C16.5684 11.8554 16.2965 11.7389 16.0632 11.5016C15.8425 11.2811 15.728 11.0137 15.7197 10.6994C15.7114 10.385 15.7803 10.0822 15.9265 9.79087C16.0185 9.61553 16.0896 9.42653 16.14 9.22387C16.1903 9.02103 16.2155 8.80895 16.2155 8.58762C16.2155 8.37428 16.1893 8.1662 16.137 7.96337C16.0846 7.7607 16.0145 7.56737 15.9265 7.38337C15.7803 7.09203 15.7134 6.79137 15.7257 6.48137C15.738 6.17137 15.8545 5.90603 16.0752 5.68536C16.3085 5.44803 16.5824 5.33253 16.8967 5.33887C17.211 5.3452 17.4599 5.47736 17.6432 5.73536C17.9312 6.14403 18.1545 6.59128 18.3132 7.07712C18.472 7.56278 18.5515 8.06628 18.5515 8.58762ZM9.0177 12.7909C7.85787 12.7909 6.86737 12.3803 6.0462 11.5591C5.22504 10.7379 4.81445 9.74745 4.81445 8.58762C4.81445 7.42778 5.22504 6.43728 6.0462 5.61612C6.86737 4.79495 7.85787 4.38437 9.0177 4.38437C10.1774 4.38437 11.1679 4.79495 11.9892 5.61612C12.8104 6.43728 13.221 7.42778 13.221 8.58762C13.221 9.74745 12.8114 10.7379 11.9922 11.5591C11.1729 12.3803 10.1814 12.7909 9.0177 12.7909ZM0.814453 18.9164V18.1821C0.814453 17.5724 0.975036 17.0119 1.2962 16.5006C1.61737 15.9894 2.02795 15.6089 2.52795 15.3589C3.37795 14.9255 4.3512 14.5559 5.4477 14.2499C6.54437 13.9439 7.73437 13.7909 9.0177 13.7909C10.301 13.7909 11.491 13.9419 12.5875 14.2439C13.684 14.5459 14.6572 14.9135 15.5072 15.3469C16.0072 15.5969 16.4179 15.9795 16.7392 16.4946C17.0604 17.0099 17.221 17.5724 17.221 18.1821V18.9164C17.221 19.546 16.9992 20.0826 16.5557 20.5261C16.1122 20.9696 15.5756 21.1914 14.946 21.1914H3.08945C2.45962 21.1914 1.92304 20.9696 1.4797 20.5261C1.0362 20.0826 0.814453 19.546 0.814453 18.9164Z" fill="#FCF3D7"/>
</svg>
