<svg width="24" height="24" viewBox="0 0 24 24" fill="none" xmlns="http://www.w3.org/2000/svg">
<path d="M5.95703 3.02837C5.95703 2.46042 6.41745 2 6.9854 2C7.55335 2 8.01377 2.46042 8.01377 3.02837V4.67376C8.01377 5.24171 7.55335 5.70213 6.9854 5.70213C6.41745 5.70213 5.95703 5.24171 5.95703 4.67376V3.02837Z" fill="#FCF3D7"/>
<path fill-rule="evenodd" clip-rule="evenodd" d="M6.16602 3.64539C4.23302 3.64539 2.66602 5.21239 2.66602 7.14539V17.8333C2.66602 19.7663 4.23302 21.3333 6.16602 21.3333H17.6766C19.6096 21.3333 21.1766 19.7663 21.1766 17.8333V7.14539C21.1766 5.21239 19.6096 3.64539 17.6766 3.64539H6.16602ZM5.95679 8.78727C5.95679 9.35522 6.41721 9.81564 6.98516 9.81564H16.8575C17.4255 9.81564 17.8859 9.35522 17.8859 8.78727C17.8859 8.21932 17.4255 7.7589 16.8575 7.7589H6.98516C6.41721 7.7589 5.95679 8.21932 5.95679 8.78727ZM6.98516 13.9291C6.41721 13.9291 5.95679 13.4687 5.95679 12.9007C5.95679 12.3328 6.41721 11.8724 6.98516 11.8724H16.8575C17.4255 11.8724 17.8859 12.3328 17.8859 12.9007C17.8859 13.4687 17.4255 13.9291 16.8575 13.9291H6.98516ZM5.95679 17.0142C5.95679 17.5821 6.41721 18.0425 6.98516 18.0425H13.9781C14.546 18.0425 15.0064 17.5821 15.0064 17.0142C15.0064 16.4462 14.546 15.9858 13.9781 15.9858H6.98516C6.41721 15.9858 5.95679 16.4462 5.95679 17.0142Z" fill="#FCF3D7"/>
<path d="M10.8945 3.02837C10.8945 2.46042 11.3549 2 11.9229 2C12.4909 2 12.9513 2.46042 12.9513 3.02837V4.67376C12.9513 5.24171 12.4909 5.70213 11.9229 5.70213C11.3549 5.70213 10.8945 5.24171 10.8945 4.67376V3.02837Z" fill="#FCF3D7"/>
<path d="M15.8301 3.02837C15.8301 2.46042 16.2905 2 16.8584 2C17.4264 2 17.8868 2.46042 17.8868 3.02837V4.67376C17.8868 5.24171 17.4264 5.70213 16.8584 5.70213C16.2905 5.70213 15.8301 5.24171 15.8301 4.67376V3.02837Z" fill="#FCF3D7"/>
</svg>
