<svg width="24" height="24" viewBox="0 0 24 24" fill="none" xmlns="http://www.w3.org/2000/svg">
<path d="M11.988 21.2031C9.86015 21.2031 7.9739 20.5616 6.32923 19.2786C4.68473 17.9956 3.6069 16.3545 3.09573 14.3554C3.01707 14.0734 3.07298 13.8153 3.26348 13.5811C3.45415 13.347 3.70907 13.2092 4.02823 13.1679C4.33073 13.1265 4.60732 13.1815 4.85798 13.3329C5.10848 13.484 5.2814 13.707 5.37673 14.0016C5.79657 15.4538 6.61657 16.6379 7.83673 17.5539C9.05673 18.47 10.4405 18.9281 11.988 18.9281C13.9181 18.9281 15.5554 18.256 16.8997 16.9116C18.2441 15.5671 18.9162 13.9299 18.9162 11.9999C18.9162 10.0699 18.2441 8.43263 16.8997 7.08813C15.5554 5.7438 13.9181 5.07163 11.988 5.07163C10.8858 5.07163 9.85065 5.32138 8.88248 5.82088C7.91448 6.32021 7.09473 7.01263 6.42323 7.89813H7.95823C8.2534 7.89813 8.50182 7.99897 8.70348 8.20063C8.90515 8.4023 9.00598 8.6508 9.00598 8.94613C9.00598 9.24146 8.90515 9.49088 8.70348 9.69438C8.50182 9.89805 8.2534 9.99988 7.95823 9.99988H3.98198C3.66282 9.99988 3.39348 9.89013 3.17398 9.67063C2.95432 9.45096 2.84448 9.18155 2.84448 8.86238V4.89238C2.84448 4.59705 2.94532 4.34955 3.14698 4.14988C3.34865 3.95021 3.59715 3.85038 3.89248 3.85038C4.18765 3.85038 4.43507 3.95021 4.63473 4.14988C4.8344 4.34955 4.93423 4.59705 4.93423 4.89238V6.11063C5.80423 5.05196 6.85365 4.23496 8.08248 3.65963C9.31148 3.0843 10.6133 2.79663 11.988 2.79663C13.262 2.79663 14.4577 3.03913 15.5752 3.52413C16.6929 4.00913 17.6658 4.66571 18.494 5.49388C19.3223 6.32221 19.9789 7.29513 20.4637 8.41263C20.9487 9.5303 21.1912 10.726 21.1912 11.9999C21.1912 13.2737 20.9487 14.4695 20.4637 15.5871C19.9789 16.7046 19.3223 17.6775 18.494 18.5059C17.6658 19.334 16.6929 19.9906 15.5752 20.4756C14.4577 20.9606 13.262 21.2031 11.988 21.2031ZM13.0477 11.5999L15.494 14.0401C15.6893 14.2355 15.787 14.4807 15.787 14.7759C15.787 15.0712 15.6893 15.3165 15.494 15.5119C15.2986 15.7072 15.0534 15.8049 14.7582 15.8049C14.4629 15.8049 14.2176 15.7072 14.0222 15.5119L11.294 12.7836C11.182 12.6716 11.098 12.5461 11.042 12.4071C10.9861 12.2683 10.9582 12.1222 10.9582 11.9689V8.04163C10.9582 7.74646 11.059 7.49905 11.2605 7.29938C11.4621 7.09971 11.7106 6.99988 12.006 6.99988C12.3013 6.99988 12.5487 7.09971 12.7482 7.29938C12.9479 7.49905 13.0477 7.74646 13.0477 8.04163V11.5999Z" fill="#3E4345"/>
</svg>
