<svg width="47" height="43" viewBox="0 0 47 43" fill="none" xmlns="http://www.w3.org/2000/svg">
<g id="ic_home">
<g id="Group 134">
<path id="Polygon 4" d="M23.7252 7.70775L36.0893 23.5363H11.3612L23.7252 7.70775Z" fill="#C6CACC"/>
<path id="Rectangle 74" d="M9.44849 17.6394H38.002V38.0513C38.002 39.8052 36.5801 41.2271 34.8262 41.2271H12.6243C10.8703 41.2271 9.44849 39.8052 9.44849 38.0513V17.6394Z" fill="#C6CACC"/>
<path id="Rectangle 86" d="M42.734 24.6779C43.9856 23.4491 43.9948 21.4476 42.7546 20.2074L25.9807 3.43355C24.7405 2.19332 22.7205 2.184 21.4689 3.41275L20.9719 3.90066C19.7202 5.12941 19.711 7.13091 20.9512 8.37114L37.7251 25.145C38.9653 26.3852 40.9854 26.3945 42.237 25.1658L42.734 24.6779Z" fill="#FD8E4D"/>
<path id="Rectangle 87" d="M4.26649 24.6779C3.01488 23.4491 3.00565 21.4476 4.24588 20.2074L21.2075 3.24576C22.4478 2.00553 24.4678 1.99622 25.7194 3.22496L28.4827 5.93771L9.27538 25.145C8.03515 26.3852 6.01511 26.3945 4.76349 25.1658L4.26649 24.6779Z" fill="#FD8E4D"/>
<path id="Rectangle 82" d="M18.1392 27.8848C18.1392 26.1309 19.561 24.709 21.315 24.709H26.0773C27.8313 24.709 29.2532 26.1309 29.2532 27.8848V41.227H18.1392V27.8848Z" fill="#5E6366"/>
<path id="Rectangle 88" d="M19.7278 20.085C19.7278 18.3311 21.1496 16.9092 22.9036 16.9092H24.3815C26.1355 16.9092 27.5574 18.3311 27.5574 20.085V21.4547H19.7278V20.085Z" fill="white"/>
</g>
</g>
</svg>
