<svg width="24" height="24" viewBox="0 0 24 24" fill="none" xmlns="http://www.w3.org/2000/svg">
<path d="M14.2468 12L6.99258 4.74577C6.71858 4.47177 6.58474 4.14819 6.59108 3.77502C6.59741 3.40185 6.73958 3.07627 7.01758 2.79827C7.29141 2.52444 7.61491 2.38752 7.98808 2.38752C8.36124 2.38752 8.68483 2.52444 8.95883 2.79827L16.5691 10.3838C16.7969 10.6116 16.9668 10.8664 17.0788 11.1483C17.1908 11.4303 17.2468 11.7142 17.2468 12C17.2468 12.2859 17.1908 12.5698 17.0788 12.8518C16.9668 13.1336 16.7969 13.3884 16.5691 13.6163L8.95883 21.2208C8.68483 21.4946 8.35808 21.6294 7.97858 21.625C7.59908 21.6207 7.27041 21.4796 6.99258 21.2018C6.71858 20.9278 6.58158 20.6032 6.58158 20.228C6.58158 19.8529 6.71858 19.5283 6.99258 19.2543L14.2468 12Z" fill="#5E6366"/>
</svg>
