<svg width="28" height="28" viewBox="0 0 28 28" fill="none" xmlns="http://www.w3.org/2000/svg">
<path d="M12.3456 15.8559L10.0187 13.5289C9.77704 13.2871 9.47225 13.1661 9.10436 13.1661C8.73666 13.1661 8.43187 13.2871 8.18998 13.5289C7.94829 13.7706 7.82861 14.0754 7.83094 14.4433C7.83327 14.811 7.95529 15.1157 8.19698 15.3574L11.4106 18.571C11.6781 18.8368 11.9903 18.9697 12.3471 18.9697C12.7037 18.9697 13.015 18.8368 13.281 18.571L19.768 12.0837C20.0099 11.842 20.1308 11.5385 20.1308 11.1732C20.1308 10.8076 20.0099 10.504 19.768 10.2623C19.5263 10.0204 19.2215 9.89944 18.8536 9.89944C18.4859 9.89944 18.1812 10.0204 17.9395 10.2623L12.3456 15.8559ZM14 25.9038C12.349 25.9038 10.7998 25.5915 9.35257 24.9669C7.90512 24.3424 6.64609 23.4949 5.57548 22.4245C4.50507 21.3539 3.65758 20.0948 3.03302 18.6474C2.40847 17.2001 2.09619 15.651 2.09619 14C2.09619 12.349 2.40847 10.7998 3.03302 9.35257C3.65758 7.90512 4.50507 6.64609 5.57548 5.57548C6.64609 4.50507 7.90512 3.65758 9.35257 3.03302C10.7998 2.40847 12.349 2.09619 14 2.09619C15.651 2.09619 17.2001 2.40847 18.6474 3.03302C20.0948 3.65758 21.3539 4.50507 22.4245 5.57548C23.4949 6.64609 24.3424 7.90512 24.9669 9.35257C25.5915 10.7998 25.9038 12.349 25.9038 14C25.9038 15.651 25.5915 17.2001 24.9669 18.6474C24.3424 20.0948 23.4949 21.3539 22.4245 22.4245C21.3539 23.4949 20.0948 24.3424 18.6474 24.9669C17.2001 25.5915 15.651 25.9038 14 25.9038Z" fill="#E3E5E5"/>
</svg>
