<svg width="28" height="28" viewBox="0 0 28 28" fill="none" xmlns="http://www.w3.org/2000/svg">
<path d="M14 25.9038C12.349 25.9038 10.7998 25.5915 9.35257 24.9669C7.90512 24.3424 6.64609 23.4949 5.57548 22.4245C4.50507 21.3539 3.65758 20.0948 3.03302 18.6474C2.40847 17.2001 2.09619 15.651 2.09619 14C2.09619 12.349 2.40847 10.7998 3.03302 9.35257C3.65758 7.90512 4.50507 6.64609 5.57548 5.57548C6.64609 4.50507 7.90512 3.65758 9.35257 3.03302C10.7998 2.40847 12.349 2.09619 14 2.09619C15.651 2.09619 17.2001 2.40847 18.6474 3.03302C20.0948 3.65758 21.3539 4.50507 22.4245 5.57548C23.4949 6.64609 24.3424 7.90512 24.9669 9.35257C25.5915 10.7998 25.9038 12.349 25.9038 14C25.9038 15.651 25.5915 17.2001 24.9669 18.6474C24.3424 20.0948 23.4949 21.3539 22.4245 22.4245C21.3539 23.4949 20.0948 24.3424 18.6474 24.9669C17.2001 25.5915 15.651 25.9038 14 25.9038Z" fill="#FC5E01"/>
<path d="M11.8804 16.1513H9.90945C9.60556 16.1513 9.38106 16.0159 9.23595 15.7452C9.09095 15.4744 9.10684 15.2119 9.28362 14.9578L14.4663 7.50016C14.5854 7.33394 14.7398 7.21899 14.9294 7.15533C15.1192 7.09155 15.3126 7.0956 15.5094 7.16749C15.7062 7.23949 15.8537 7.36349 15.9519 7.53949C16.0502 7.71549 16.0868 7.90455 16.0619 8.10666L15.5166 12.515H18.0123C18.3384 12.515 18.5684 12.66 18.7023 12.9502C18.8363 13.2403 18.7968 13.511 18.5839 13.7625L12.8974 20.5882C12.7672 20.7433 12.6079 20.843 12.4194 20.8875C12.2311 20.9319 12.0469 20.9139 11.8669 20.8335C11.6871 20.753 11.5479 20.627 11.4494 20.4553C11.351 20.2835 11.3142 20.0979 11.3391 19.8983L11.8804 16.1513Z" fill="white"/>
</svg>
