<svg width="32" height="50" viewBox="0 0 32 50" fill="none" xmlns="http://www.w3.org/2000/svg">
<g id="ic_carieer_29">
<rect id="Rectangle 56" x="6.62061" y="3.32605" width="3.31034" height="5.54348" fill="#FD8E4D"/>
<rect id="Rectangle 57" x="22.0688" y="3.32605" width="3.31034" height="5.54348" fill="#FD8E4D"/>
<path id="Rectangle 58" d="M6.62061 3C6.62061 1.34315 7.96375 0 9.62061 0H22.3792C24.0361 0 25.3792 1.34315 25.3792 3V3.32609H6.62061V3Z" fill="#FD8E4D"/>
<path id="Rectangle 59" d="M5.51733 44.4565H9.93113V47.7931C9.93113 49.0119 8.94307 50 7.72423 50C6.5054 50 5.51733 49.0119 5.51733 47.7931V44.4565Z" fill="#919699"/>
<path id="Rectangle 60" d="M22.0688 44.4565H26.4826V47.7931C26.4826 49.0119 25.4946 50 24.2757 50C23.0569 50 22.0688 49.0119 22.0688 47.7931V44.4565Z" fill="#919699"/>
<rect id="Rectangle 53" y="7.86957" width="32" height="39.913" rx="4" fill="#FDE08B"/>
<path id="Rectangle 35" d="M6.62061 20.6117C6.62061 19.6976 7.36165 18.9565 8.27578 18.9565C9.1899 18.9565 9.93095 19.6976 9.93095 20.6117V41.6927C9.93095 42.6068 9.1899 43.3478 8.27578 43.3478C7.36165 43.3478 6.62061 42.6068 6.62061 41.6927V20.6117Z" fill="#FCC118"/>
<path id="Rectangle 54" d="M14.3447 20.6117C14.3447 19.6976 15.0858 18.9565 15.9999 18.9565C16.914 18.9565 17.6551 19.6976 17.6551 20.6117V41.6927C17.6551 42.6068 16.914 43.3478 15.9999 43.3478C15.0858 43.3478 14.3447 42.6068 14.3447 41.6927V20.6117Z" fill="#FCC118"/>
<path id="Rectangle 55" d="M22.0688 20.6117C22.0688 19.6976 22.8099 18.9565 23.724 18.9565C24.6381 18.9565 25.3792 19.6976 25.3792 20.6117V41.6927C25.3792 42.6068 24.6381 43.3478 23.724 43.3478C22.8099 43.3478 22.0688 42.6068 22.0688 41.6927V20.6117Z" fill="#FCC118"/>
</g>
</svg>
