<svg width="45" height="44" viewBox="0 0 45 44" fill="none" xmlns="http://www.w3.org/2000/svg">
<g id="Group 127">
<path id="Line 4 (Stroke)" fill-rule="evenodd" clip-rule="evenodd" d="M13.5778 15.4705C13.5778 15.4697 13.5778 15.4688 11.2504 15.4688C8.92309 15.4688 8.9231 15.4677 8.9231 15.4667L8.9231 15.4642L8.92311 15.4585L8.92319 15.4434L8.92366 15.3989C8.92416 15.363 8.92508 15.3147 8.92679 15.2548C8.93021 15.135 8.93678 14.9686 8.94941 14.762C8.97462 14.3497 9.02424 13.7733 9.12221 13.0867C9.31644 11.7253 9.70914 9.86983 10.5171 7.98223C11.3249 6.09493 12.5869 4.08616 14.5666 2.54446C16.5795 0.976853 19.1988 0 22.5004 0C25.8021 0 28.4213 0.976853 30.4343 2.54446C32.414 4.08616 33.6759 6.09493 34.4838 7.98223C35.2917 9.86983 35.6844 11.7253 35.8787 13.0867C35.9766 13.7733 36.0263 14.3497 36.0515 14.762C36.0641 14.9686 36.0707 15.135 36.0741 15.2548C36.0758 15.3147 36.0767 15.363 36.0772 15.3989L36.0777 15.4434L36.0778 15.4585L36.0778 15.4642L36.0778 15.4667C36.0778 15.4677 36.0778 15.4688 33.7504 15.4688C31.4231 15.4688 31.4231 15.4697 31.4231 15.4705L31.4231 15.4742L31.423 15.4632C31.4228 15.4494 31.4223 15.4239 31.4213 15.3876C31.4192 15.3148 31.4148 15.1989 31.4055 15.0461C31.3867 14.7398 31.3485 14.2895 31.2706 13.7441C31.1133 12.6415 30.8029 11.2116 30.2046 9.81386C29.6062 8.41581 28.7587 7.13923 27.5744 6.21692C26.4233 5.32051 24.8238 4.65469 22.5004 4.65469C20.1771 4.65469 18.5776 5.32051 17.4265 6.21692C16.2421 7.13923 15.3947 8.41581 14.7963 9.81386C14.198 11.2116 13.8876 12.6415 13.7302 13.7441C13.6524 14.2895 13.6141 14.7398 13.5954 15.0461C13.5861 15.1989 13.5817 15.3148 13.5796 15.3876C13.5785 15.4239 13.5781 15.4494 13.5779 15.4632L13.5778 15.4742L13.5778 15.4721L13.5778 15.4705Z" fill="#FDD152"/>
<path id="Rectangle 67" d="M0.857371 16.8867C0.410942 14.4313 2.29723 12.1711 4.79285 12.1711H40.2071C42.7028 12.1711 44.5891 14.4313 44.1426 16.8867L39.9722 39.8242C39.6264 41.7261 37.9698 43.1086 36.0367 43.1086H8.96331C7.03016 43.1086 5.37364 41.7261 5.02783 39.8242L0.857371 16.8867Z" fill="#FD8E4D"/>
<rect id="Rectangle 68" x="14.0625" y="35" width="18.2812" height="4.65469" rx="2.32734" fill="white"/>
</g>
</svg>
