<svg width="20" height="20" viewBox="0 0 20 20" fill="none" xmlns="http://www.w3.org/2000/svg">
<path d="M12.5425 16.1702L11.9389 17.8973C11.8767 18.0766 11.7653 18.2223 11.6047 18.3344C11.4443 18.4466 11.2675 18.5027 11.0743 18.5027C10.7567 18.5027 10.5002 18.3724 10.305 18.1117C10.1098 17.851 10.0727 17.5635 10.1937 17.2492L13.2908 8.90898C13.3701 8.71968 13.4934 8.56648 13.6606 8.4494C13.8277 8.33218 14.0128 8.27356 14.216 8.27356H14.9456C15.1488 8.27356 15.3339 8.33218 15.501 8.4494C15.6682 8.56648 15.7915 8.71968 15.8708 8.90898L18.9679 17.26C19.0888 17.5638 19.0544 17.8468 18.8645 18.1092C18.6747 18.3716 18.4193 18.5027 18.0983 18.5027C17.8944 18.5027 17.7141 18.4466 17.5572 18.3344C17.4004 18.2223 17.284 18.0697 17.2079 17.8765L16.6091 16.1702H12.5425ZM7.42204 11.895L3.91662 15.3846C3.73731 15.5639 3.51891 15.6554 3.26141 15.659C3.00405 15.6626 2.78044 15.5695 2.59058 15.3796C2.41113 15.2002 2.32141 14.9783 2.32141 14.714C2.32141 14.4497 2.41113 14.2279 2.59058 14.0486L6.101 10.5381C5.58169 10.0122 5.11995 9.43586 4.71579 8.80919C4.31162 8.18252 3.94954 7.48829 3.62954 6.72648H5.66849C5.91961 7.21495 6.18238 7.65231 6.45683 8.03856C6.73141 8.42468 7.05648 8.81412 7.43204 9.2069C7.8837 8.74204 8.34856 8.11051 8.82662 7.31231C9.30481 6.51412 9.66391 5.76329 9.90391 5.05981H1.58183C1.31586 5.05981 1.09141 4.96836 0.908494 4.78544C0.725439 4.60238 0.633911 4.37787 0.633911 4.1119C0.633911 3.84593 0.725439 3.62141 0.908494 3.43836C1.09141 3.25544 1.31586 3.16398 1.58183 3.16398H6.46724V2.44523C6.46724 2.17926 6.55877 1.95474 6.74183 1.77169C6.92474 1.58877 7.14919 1.49731 7.41516 1.49731C7.68127 1.49731 7.90579 1.58877 8.0887 1.77169C8.27162 1.95474 8.36308 2.17926 8.36308 2.44523V3.16398H13.2485C13.5146 3.16398 13.7391 3.25544 13.922 3.43836C14.105 3.62141 14.1964 3.84593 14.1964 4.1119C14.1964 4.37787 14.105 4.60238 13.922 4.78544C13.7391 4.96836 13.5146 5.05981 13.2485 5.05981H11.8495C11.5512 6.04315 11.1079 7.06093 10.5197 8.11315C9.93141 9.16551 9.34252 9.98606 8.75308 10.5748L10.5139 12.3723L9.80433 14.3348L7.42204 11.895ZM13.1331 14.4827H16.0135L14.5733 10.3623L13.1331 14.4827Z" fill="white"/>
</svg>
