<svg width="20" height="20" viewBox="0 0 20 20" fill="none" xmlns="http://www.w3.org/2000/svg">
<path d="M15.9629 9.97928C15.9629 8.83317 15.6581 7.78526 15.0487 6.83553C14.4392 5.88581 13.6239 5.17317 12.6027 4.69762C12.3878 4.59706 12.2317 4.44109 12.1345 4.2297C12.0373 4.01831 12.0267 3.80352 12.1027 3.58533C12.1893 3.3531 12.3445 3.18671 12.5681 3.08616C12.7917 2.9856 13.0179 2.9856 13.2468 3.08616C14.6007 3.69671 15.6821 4.62067 16.491 5.85803C17.2997 7.09553 17.7041 8.46928 17.7041 9.97928C17.7041 11.4893 17.2997 12.863 16.491 14.1005C15.6821 15.3379 14.6007 16.2619 13.2468 16.8724C13.0179 16.973 12.7917 16.973 12.5681 16.8724C12.3445 16.7719 12.1893 16.6055 12.1027 16.3732C12.0267 16.155 12.0373 15.9403 12.1345 15.7289C12.2317 15.5175 12.3878 15.3615 12.6027 15.261C13.6239 14.7854 14.4392 14.0728 15.0487 13.123C15.6581 12.1733 15.9629 11.1254 15.9629 9.97928ZM5.72869 12.6695H3.24369C2.97758 12.6695 2.75307 12.578 2.57015 12.3951C2.38723 12.2121 2.29578 11.9875 2.29578 11.7216V8.27866C2.29578 8.01269 2.38723 7.78817 2.57015 7.60512C2.75307 7.4222 2.97758 7.33074 3.24369 7.33074H5.72869L8.51349 4.54595C8.8139 4.2454 9.15835 4.1772 9.54682 4.34137C9.93529 4.50553 10.1295 4.79998 10.1295 5.2247V14.7755C10.1295 15.2003 9.93529 15.4947 9.54682 15.6589C9.15835 15.823 8.8139 15.7548 8.51349 15.4543L5.72869 12.6695ZM13.9541 10.0001C13.9541 10.5901 13.8189 11.148 13.5485 11.6739C13.2779 12.1997 12.9207 12.6342 12.4768 12.9774C12.3279 13.0674 12.1773 13.0709 12.0249 12.9878C11.8724 12.9048 11.7962 12.775 11.7962 12.5985V7.36012C11.7962 7.18359 11.8724 7.05463 12.0249 6.97324C12.1773 6.89185 12.3279 6.89616 12.4768 6.98616C12.9207 7.34324 13.2779 7.78734 13.5485 8.31845C13.8189 8.84956 13.9541 9.41012 13.9541 10.0001Z" fill="white"/>
</svg>
