<svg width="24" height="24" viewBox="0 0 24 24" fill="none" xmlns="http://www.w3.org/2000/svg">
<path d="M12.0001 16.3589C12.8001 16.3589 13.5126 16.1214 14.1376 15.6464C14.7626 15.1714 15.2168 14.5589 15.5001 13.8089H8.50013C8.78346 14.5589 9.23763 15.1714 9.86263 15.6464C10.4876 16.1214 11.2001 16.3589 12.0001 16.3589ZM9.50013 12.3589C9.91679 12.3589 10.271 12.213 10.5626 11.9214C10.8543 11.6297 11.0001 11.2755 11.0001 10.8589C11.0001 10.4422 10.8543 10.088 10.5626 9.79637C10.271 9.5047 9.91679 9.35887 9.50013 9.35887C9.08346 9.35887 8.72929 9.5047 8.43763 9.79637C8.14596 10.088 8.00013 10.4422 8.00013 10.8589C8.00013 11.2755 8.14596 11.6297 8.43763 11.9214C8.72929 12.213 9.08346 12.3589 9.50013 12.3589ZM14.5001 12.3589C14.9168 12.3589 15.271 12.213 15.5626 11.9214C15.8543 11.6297 16.0001 11.2755 16.0001 10.8589C16.0001 10.4422 15.8543 10.088 15.5626 9.79637C15.271 9.5047 14.9168 9.35887 14.5001 9.35887C14.0835 9.35887 13.7293 9.5047 13.4376 9.79637C13.146 10.088 13.0001 10.4422 13.0001 10.8589C13.0001 11.2755 13.146 11.6297 13.4376 11.9214C13.7293 12.213 14.0835 12.3589 14.5001 12.3589ZM7.51388 6.45387L10.3116 2.82887C10.5275 2.54637 10.7825 2.33762 11.0766 2.20262C11.3706 2.06762 11.678 2.00012 11.9989 2.00012C12.3197 2.00012 12.6275 2.06762 12.9224 2.20262C13.2174 2.33762 13.4728 2.54637 13.6886 2.82887L16.4864 6.45387L20.7326 7.87887C21.198 8.02421 21.5625 8.28896 21.8264 8.67312C22.0904 9.05746 22.2224 9.47821 22.2224 9.93537C22.2224 10.1497 22.1914 10.364 22.1294 10.5781C22.0674 10.7925 21.9654 10.9978 21.8234 11.1941L19.0854 15.0884L19.1854 19.1821C19.202 19.8041 18.9935 20.3284 18.5596 20.7549C18.1258 21.1814 17.6163 21.3946 17.0311 21.3946C17.0018 21.3946 16.8165 21.3716 16.4751 21.3256L12.0001 20.0816L7.52513 21.3256C7.43779 21.359 7.34413 21.3798 7.24413 21.3881C7.14413 21.3965 7.05046 21.4006 6.96312 21.4006C6.38363 21.4006 5.87654 21.1867 5.44187 20.7589C5.00721 20.3309 4.80021 19.8053 4.82087 19.1821L4.92088 15.0691L2.19587 11.1941C2.05404 10.998 1.95204 10.793 1.88987 10.5791C1.82787 10.3651 1.79688 10.1511 1.79688 9.93712C1.79688 9.49146 1.92571 9.07646 2.18337 8.69212C2.44087 8.30796 2.80229 8.03687 3.26762 7.87887L7.51388 6.45387Z" fill="#FCF3D7"/>
</svg>
