<svg width="18" height="19" viewBox="0 0 18 19" fill="none" xmlns="http://www.w3.org/2000/svg">
<path d="M0.796875 15.9283V7.03584C0.796875 6.67534 0.876708 6.33451 1.03638 6.01334C1.19588 5.69217 1.41854 5.42601 1.70438 5.21484L7.63262 0.768588C8.03446 0.462088 8.49029 0.308838 9.00012 0.308838C9.50996 0.308838 9.96579 0.462088 10.3676 0.768588L16.2959 5.21484C16.5817 5.42601 16.8044 5.69217 16.9639 6.01334C17.1235 6.33451 17.2034 6.67534 17.2034 7.03584V15.9283C17.2034 16.558 16.9816 17.0946 16.5381 17.5381C16.0946 17.9816 15.558 18.2033 14.9284 18.2033H12.1854C11.8662 18.2033 11.5969 18.0936 11.3774 17.8741C11.1577 17.6544 11.0479 17.385 11.0479 17.0658V12.0898C11.0479 11.7705 10.9381 11.5011 10.7186 11.2816C10.4991 11.0621 10.2297 10.9523 9.91037 10.9523H8.08987C7.77054 10.9523 7.50112 11.0621 7.28162 11.2816C7.06213 11.5011 6.95237 11.7705 6.95237 12.0898V17.0658C6.95237 17.385 6.84254 17.6544 6.62287 17.8741C6.40337 18.0936 6.13404 18.2033 5.81487 18.2033H3.07187C2.44221 18.2033 1.90562 17.9816 1.46213 17.5381C1.01863 17.0946 0.796875 16.558 0.796875 15.9283Z" fill="#FCF3D7"/>
</svg>
