<svg width="36" height="36" viewBox="0 0 36 36" fill="none" xmlns="http://www.w3.org/2000/svg">
<g id="ic_mic_36">
<path id="Vector" d="M17.9998 21.4125C16.654 21.4125 15.5108 20.9421 14.57 20.0013C13.6293 19.0606 13.1589 17.9173 13.1589 16.5716V7.63458C13.1589 6.28883 13.6293 5.14558 14.57 4.20483C15.5108 3.26408 16.654 2.7937 17.9998 2.7937C19.3455 2.7937 20.4888 3.26408 21.4295 4.20483C22.3703 5.14558 22.8406 6.28883 22.8406 7.63458V16.5716C22.8406 17.9173 22.3703 19.0606 21.4295 20.0013C20.4888 20.9421 19.3455 21.4125 17.9998 21.4125ZM16.3651 30.4124V27.3986C13.9816 27.0676 11.9426 26.0597 10.2481 24.375C8.55389 22.6902 7.52277 20.6465 7.15477 18.2437C7.09302 17.783 7.21452 17.3891 7.51927 17.0621C7.82427 16.7351 8.20714 16.5716 8.66789 16.5716C9.12889 16.5716 9.51952 16.7303 9.83977 17.0478C10.1603 17.3651 10.3765 17.7542 10.4885 18.2152C10.8683 19.9892 11.7654 21.4402 13.1799 22.5682C14.5941 23.6959 16.2008 24.2598 17.9998 24.2598C19.8238 24.2598 21.4366 23.6897 22.8384 22.5494C24.2404 21.409 25.1313 19.9642 25.511 18.2152C25.623 17.7542 25.8393 17.3651 26.1598 17.0478C26.48 16.7303 26.8706 16.5716 27.3316 16.5716C27.7924 16.5716 28.1738 16.7366 28.4758 17.0666C28.7778 17.3963 28.8978 17.7917 28.8358 18.2527C28.4678 20.6054 27.4444 22.6352 25.7656 24.3419C24.0866 26.0487 22.0429 27.0676 19.6344 27.3986V30.4124C19.6344 30.8734 19.4771 31.2611 19.1626 31.5753C18.8481 31.8898 18.4605 32.0471 17.9998 32.0471C17.539 32.0471 17.1514 31.8898 16.8369 31.5753C16.5224 31.2611 16.3651 30.8734 16.3651 30.4124Z" fill="white"/>
</g>
</svg>
